<svg width="20" height="20" viewBox="0 0 20 20" fill="none" xmlns="http://www.w3.org/2000/svg">
<path d="M14.1084 14.2665L13.4417 13.1332L14.6584 9.4915L15.8334 9.09984L16.6667 9.72484C16.6667 9.74984 16.6667 9.7915 16.6667 9.8415C16.6667 9.89984 16.6917 9.94984 16.6917 9.99984C16.6917 11.6415 16.1417 13.0915 15.0501 14.3415L14.1084 14.2665ZM8.12508 12.4998L6.98341 9.1415L10.0001 7.02484L13.0167 9.1415L11.8751 12.4998H8.12508ZM10.0001 16.6915C9.26675 16.6915 8.57508 16.5748 7.91675 16.3415L7.34175 15.0832L7.89175 14.1665H12.1501L12.6584 15.0832L12.0834 16.3415C11.4251 16.5748 10.7334 16.6915 10.0001 16.6915ZM4.95008 14.3415C4.50841 13.8248 4.12508 13.1332 3.80008 12.2915C3.47508 11.4415 3.30841 10.6748 3.30841 9.99984C3.30841 9.94984 3.33341 9.89984 3.33341 9.8415C3.33341 9.7915 3.33341 9.74984 3.33341 9.72484L4.16675 9.09984L5.34175 9.4915L6.55841 13.1332L5.89175 14.2665L4.95008 14.3415ZM9.16675 4.40817V5.57484L5.83341 7.88317L4.71675 7.53317L4.36675 6.39984C4.73341 5.83317 5.27508 5.2665 5.99175 4.7165C6.70841 4.1665 7.39175 3.80817 8.04175 3.62484L9.16675 4.40817ZM11.9584 3.62484C12.6084 3.80817 13.2917 4.1665 14.0084 4.7165C14.7251 5.2665 15.2667 5.83317 15.6334 6.39984L15.2834 7.53317L14.1667 7.8915L10.8334 5.58317V4.40817L11.9584 3.62484ZM4.10841 4.10817C2.50008 5.7415 1.66675 7.70817 1.66675 9.99984C1.66675 12.2915 2.50008 14.2582 4.10841 15.8915C5.71675 17.5248 7.70841 18.3332 10.0001 18.3332C12.2917 18.3332 14.2584 17.4998 15.8917 15.8915C17.5251 14.2832 18.3334 12.2915 18.3334 9.99984C18.3334 7.70817 17.5001 5.7415 15.8917 4.10817C14.2834 2.47484 12.2917 1.6665 10.0001 1.6665C7.70841 1.6665 5.74175 2.49984 4.10841 4.10817Z" fill="#FAFAFA" fill-opacity="0.4"/>
</svg>
