<svg width="20" height="20" viewBox="0 0 20 20" fill="none" xmlns="http://www.w3.org/2000/svg">
<path d="M16.6667 4.16667V15.8333H3.33341V4.16667H16.6667ZM16.6667 2.5H3.33341C2.40841 2.5 1.66675 3.24167 1.66675 4.16667V15.8333C1.66675 16.7583 2.40841 17.5 3.33341 17.5H16.6667C17.5917 17.5 18.3334 16.7583 18.3334 15.8333V4.16667C18.3334 3.24167 17.5917 2.5 16.6667 2.5ZM15.0001 12.5H5.00008V14.1667H15.0001V12.5ZM8.33341 5.83333H5.00008V10.8333H8.33341V5.83333ZM10.0001 7.5H15.0001V5.83333H10.0001V7.5ZM15.0001 9.16667H10.0001V10.8333H15.0001V9.16667Z" fill="#FAFAFA"/>
</svg>
